<?xml version="1.0" encoding="utf-8"?>
<!-- Generator: Adobe Illustrator 18.0.0, SVG Export Plug-In . SVG Version: 6.00 Build 0)  -->
<!DOCTYPE svg PUBLIC "-//W3C//DTD SVG 1.1//EN" "http://www.w3.org/Graphics/SVG/1.1/DTD/svg11.dtd">
<svg version="1.1" id="Calque_1" xmlns="http://www.w3.org/2000/svg" xmlns:xlink="http://www.w3.org/1999/xlink" x="0px" y="0px"
	 viewBox="101.9 195.4 121.3 257.8" enable-background="new 101.9 195.4 121.3 257.8" xml:space="preserve">
<path fill="#545B52" d="M178.5,293.4c-0.7-0.3-1.1-0.4-1.7-0.6c-0.4-0.1-1-0.3-1.3-0.6c-0.3-0.1-0.4-0.7-0.3-1
	c0.1-0.3,0.6-0.4,1-0.4c0.3,0,0.7,0.1,1,0.3c0.7,0.3,1.4,0.6,2.1,0.9c0.3-0.3,0.6-0.7,0.9-1c0.6-0.6,1.1-1.1,1.7-1.6
	c2-1.3,4.2-0.9,5.5,0.9c0.7,0.9,1.3,2,1.6,3.1c0.6,1.8,0.9,3.7,1.3,5.5c0,0.3,0.1,0.6,0.3,1c0.6-0.1,1.1-0.3,1.7-0.4
	c0.9-0.3,1.8-0.6,2.7-0.9c0.6-0.1,1.1-0.1,1.3,0.6c0.1,0.6-0.3,1-0.7,1.1c-1.3,0.6-2.7,1-4.1,1.4c-0.1,0-0.4,0.1-0.7,0.1
	c0,1,0.1,1.8,0.1,2.8c0.3,3.4,0.6,6.7,1.6,9.9c0.6,2.1,1.6,4.1,2.7,5.8c0.3,0.3,0.6,0.7,0.9,1.1c0.1-0.7,0.4-1.3,0.4-1.8
	c0.9-3.7,1.8-7.2,3.3-10.8c0.9-2.1,1.8-4.1,3.3-5.9c0.4-0.6,0.4-1,0.1-1.7c-0.6-1.4-1-2.7-1.6-4.1c-0.1-0.3-0.1-0.6-0.3-0.9
	c-0.1-0.4,0.1-0.9,0.6-0.9c0.3,0,0.7,0.1,0.9,0.3c0.3,0.3,0.3,0.6,0.4,0.9c0.6,1.3,1.1,2.5,1.7,4c0.3-0.1,0.6-0.3,0.9-0.4
	c0.6-0.4,1.3-0.9,2-1c2-0.7,4-0.3,5.2,1.3c1,1.1,1.6,2.4,2,3.8c0.9,3,1.3,6.1,1.6,9.2c0,0.4,0,0.9,0.1,1.4c1.7-0.4,3.4-0.9,5.1-1.3
	c0.6-0.1,1.1-0.6,1.6,0.3c0.3,0.4-0.1,1-1.1,1.4c-1.6,0.6-3.1,1-4.5,1.4c-0.3,0.1-0.4,0.1-0.9,0.3c-0.1,8.9-1.8,17.7-4.5,26.4
	c1.1,0.3,2.1,0.4,3.1,0.7c0.7,0.1,1.6,0.3,2.3,0.6c0.3,0.1,0.7,0.1,1,0.4c0.1,0.1,0.3,0.6,0.3,0.9c0,0.1-0.4,0.4-0.7,0.4
	s-0.7,0-1-0.1c-1.8-0.3-3.7-0.6-5.5-1c-1.7,3.5-3.1,7.1-5,10.5c-1.7,3.4-3.8,6.7-6.4,9.8c0.6,0.4,1.1,0.7,1.7,1.1
	c1.1,0.6,2.3,1.1,3.3,1.7c0.3,0.1,0.6,0.3,0.9,0.4c0.4,0.3,0.7,0.6,0.4,1.1c-0.3,0.4-0.6,0.6-1.1,0.4c-0.3,0-0.6-0.1-0.9-0.3
	c-1.8-0.9-3.7-1.8-5.8-2.7c-4.1,4.2-9.2,7.4-14.7,10.1c0.7,1.4,1.4,2.8,2.1,4.2c0.1,0.3,0.3,0.6,0.4,1c0.3,0.4,0.1,0.9-0.3,1.1
	c-0.4,0.3-0.9,0.1-1.1-0.1c-0.3-0.3-0.6-0.7-0.7-1.1c-0.7-1.4-1.4-2.7-2.1-4c-3.3,1.1-6.5,2.1-9.8,3.3c-0.3,0.9-0.4,15.6-0.1,17.9
	c0.4,0,0.7,0,1.1,0c1.6,0,3,0,4.5,0c0.6,0,1,0.1,1,0.9c0,0.7-0.6,0.9-1,0.9c-1.4,0.1-2.8,0.1-4.2,0.1c-0.4,0-0.9,0-1.4,0
	c-0.1,1.6-0.1,3.1-0.3,4.5c-0.3,5.8-0.7,11.5-1.8,17.1c-0.4,2.4-1.3,4.5-2.6,6.7c-1.1,1.8-2.7,3.3-4.7,4.2c-2.8,1.4-5.4,0.7-7.1-1.8
	c-1.7-2.5-2.4-5.5-2.8-8.4c-0.7-4.2-0.7-8.5-0.8-12.8c0-0.6,0-1,0-1.7c-0.9,0-1.6,0-2.3,0c-0.4,0-0.9,0-1.1-0.1
	c-0.3-0.1-0.7-0.4-0.7-0.7c0-0.3,0.4-0.7,0.7-0.9c0.7-0.1,1.6-0.1,2.3-0.3c0.3,0,0.7,0,1.1,0c0.3-7.2,0.6-14.4,0.8-21.8
	c-0.7-0.1-1.4-0.1-2-0.3c-0.8-0.1-1.7-0.1-2.6-0.3c-0.4-0.1-1-0.3-1-0.9c0-0.7,0.6-0.9,1.1-0.9c1,0,1.8,0,2.8,0.1
	c0.6,0,1,0.1,1.7,0.1c0.1-1.7,0.1-3.3,0.3-4.8c-1.1-0.6-2.3-1.1-3.3-1.6c-4.5-1.8-8.8-4-12.8-6.8c0,0-0.1,0-0.4-0.1
	c-0.4,0.6-0.8,1.1-1.4,1.7c-0.4,0.4-0.8,1-1.3,1.3c-0.6,0.6-1.1,0.6-1.6,0.1c-0.4-0.6-0.1-1,0.1-1.4c0.7-0.9,1.3-1.7,2-2.6
	c0.1-0.1,0.3-0.3,0.4-0.6c-8.9-9.1-8.4-9.4-12.6-18.8c-0.3,0.1-0.7,0.1-1.1,0.3c-0.6,0.1-1.1,0.3-1.7,0.4c-0.6,0.1-1.1,0-1.3-0.6
	c-0.1-0.6,0.3-0.9,0.7-1.1c0.4-0.1,0.8-0.4,1.3-0.6s0.8-0.3,1.4-0.6c-1.8-7.8-3.1-15.7-3.1-23.8c-1.3-0.1-2.4-0.3-3.7-0.4
	c-0.6-0.1-1-0.1-1.6-0.3c-0.3-0.1-0.6-0.6-0.6-0.9c0-0.3,0.3-0.6,0.6-0.7c0.4-0.1,1-0.1,1.6-0.1c1.1,0.1,2.3,0.3,3.4,0.4
	c0.3-5.1,0.4-10.1,1.4-15c-1.1-0.7-2.1-1.4-3.1-2.3c-0.4-0.3-1.1-0.7-0.7-1.4c0.1-0.6,0.8-0.6,1.7,0c0.8,0.4,1.7,1,2.6,1.7
	c0.1-0.3,0.3-0.6,0.4-0.7c0.4-0.9,0.7-1.7,1.1-2.6c1.4-2.5,4.2-2.8,6.2-0.7c0.7,0.9,1.3,1.7,1.8,2.5c0.3,0.4,0.6,1,1,1.7
	c0.3-0.3,0.6-0.6,0.8-0.9c0.3-0.3,0.4-0.6,0.9-0.7c0.3-0.1,0.7,0,0.8,0.1c0.1,0.1,0.1,0.7,0.1,0.9c-0.3,0.4-0.7,0.9-1,1.3
	c-0.3,0.3-0.4,0.6-0.6,0.7c1.4,4.2,2.8,8.5,4.1,12.6c0.9-0.3,1.4-1,2.3-1.4c0.3-0.1,0.6-0.4,1-0.7c0.4-0.3,1-0.3,1.3,0.1
	c0.3,0.4,0,0.9-0.3,1.1c-1,0.9-2.1,1.6-3.1,2.3c-0.1,0.1-0.4,0.3-0.7,0.4c1,5.7,2.1,11.2,3.1,17c0.8-0.3,1.7-0.6,2.6-0.7
	c1-0.3,1.6-0.1,1.7,0.4c0.1,0.6-0.1,0.9-1.1,1.3c-0.8,0.3-1.7,0.6-2.7,1c1.1,5.7,2.3,11.2,5.1,16.4c0.4-0.4,0.7-0.7,1-1
	c0.3-0.3,0.7-0.7,1-1c0.7-0.6,1.1-0.7,1.6-0.3c0.4,0.4,0.3,0.9-0.3,1.4c-0.7,0.9-1.6,1.7-2.3,2.6c1.7,2.8,3.4,5.2,6.4,7.2
	c0.1-5.5-0.3-10.8-0.3-16.1c-1.3-0.1-2.3-0.3-3.4-0.4c-1-0.1-1.6-0.4-1.6-1c0-0.6,0.6-0.9,1.7-0.9c1,0,2.1,0.1,3.1,0.3
	c0-8.9,0-17.7,0-26.8c-0.6,0-1,0-1.6,0c-0.7-0.1-1.4-0.1-2.1-0.3c-0.3-0.1-0.6-0.6-0.6-0.9c0-0.3,0.4-0.7,0.7-0.7
	c0.7-0.1,1.4,0,2.1,0c0.4,0,1,0.1,1.6,0.1c0-8.2,0-16.3,0-24.5c-0.8-0.1-1.8-0.1-2.7-0.3c-0.6-0.1-1-0.1-1.4-0.4
	c-0.3-0.1-0.7-0.7-0.6-1c0-0.6,0.6-0.7,1.1-0.6c1,0.1,1.8,0.3,2.8,0.4c0.3,0,0.6,0.1,0.8,0.1c0-1.4,0-2.7,0-4c-3-1.3-5.9-2.7-9.1-4
	c-0.4,0.6-0.7,1.3-1.1,2c-0.3,0.6-0.7,1-1,1.6c-0.3,0.4-0.7,0.6-1.1,0.4c-0.4-0.3-0.6-0.7-0.3-1.1c0.3-0.7,0.6-1.4,1-2.1
	c0.3-0.6,0.6-1,0.9-1.6c-6.7-3.7-11.6-8.8-15.3-15.4c-0.7,0.3-1.4,0.6-2.1,0.7c-0.4,0.1-1,0.3-1.6,0.3c-0.3,0-0.7-0.4-0.8-0.7
	c0-0.3,0.1-0.7,0.4-1c0.4-0.3,1-0.4,1.4-0.6s1-0.3,1.7-0.6c-2.7-5.7-4-11.6-5-17.9c-1,0-1.7,0-2.6,0c-1,0-1.6-0.4-1.6-0.8
	c0-0.6,0.6-1,1.6-1c0.7,0,1.4,0,2.3,0c0-2.8-0.3-5.5-0.1-8.2c0-2.7,0.4-5.4,0.6-8.2c-1.3-0.9-2.4-1.7-3.7-2.6c-0.4-0.3-0.8-0.6-1-1
	c-0.1-0.3-0.3-0.7-0.1-1c0.1-0.4,0.7-0.6,1.1-0.3c0.7,0.3,1.4,0.7,2,1.1c0.7,0.4,1.4,1,2.3,1.6c0.1-0.7,0.3-1.3,0.4-1.7
	c0.7-1.8,1.3-3.8,2.1-5.5c0.4-1,1.3-2,2.3-2.7c1.4-1.1,3.3-1.1,4.7,0.1c0.6,0.6,1.1,1.3,1.6,2c1.7,2.7,2.7,5.8,3.4,8.9
	c0.6,2.1,1,4.4,1.6,6.7c0.3-0.1,0.6-0.3,0.6-0.6c0.7-1.1,1.4-2.3,2-3.5c0.7-1.6,1.4-3.3,2.1-5c-0.8-0.6-1.6-1.1-2.3-1.7
	c-0.3-0.1-0.6-0.4-0.8-0.7c-0.3-0.3-0.6-0.7-0.3-1.1s0.7-0.6,1.1-0.3c0.7,0.4,1.4,0.8,2.3,1.3c0.1,0.1,0.3,0.3,0.6,0.4
	c0.1-0.3,0.3-0.6,0.4-0.7c0.6-1.1,1.1-2.4,1.7-3.5c0.3-0.6,0.7-1.1,1.1-1.7c1.4-1.7,2.7-1.8,4.8-0.7c0.3-0.3,0.6-0.7,0.8-1.1
	c0.3-0.3,0.4-0.7,0.7-0.8c0.3-0.3,0.7-0.4,1.1-0.1s0.4,0.7,0.1,1.1c-0.3,0.6-0.7,1.1-1.1,1.6c-0.1,0.3-0.3,0.6-0.6,0.8
	c2.8,5.5,1.8,11.2,0.3,16.9c1.1,0.1,2.1,0.3,3.1,0.4c0.3,0,0.6,0,0.9,0.1c0.1,0.1,0.4,0.3,0.4,0.6s-0.1,0.6-0.4,0.7
	s-0.7,0.1-1.1,0.1c-1.1-0.1-2.3-0.3-3.5-0.4c-1.4,3.7-3.8,6.9-6.7,9.9c0.9,1,1.7,1.8,2.4,2.7c0.3,0.3,0.7,0.7,0.3,1.1
	s-0.9,0.3-1.3,0c-0.6-0.4-1-0.9-1.6-1.4c-0.4-0.4-0.7-0.8-1-1.3c-1.4,1-2.6,1.8-3.7,2.7c0.6,4.4,3.4,11.8,5.5,14.2
	c1-1.1,2-2.1,3-3.3c0.1-0.1,0.1-0.3,0.3-0.4c0.3-0.1,0.6-0.3,0.7-0.1c0.1,0.1,0.4,0.6,0.4,0.7c0,0.4-0.3,0.9-0.6,1.1
	c-0.9,1.3-1.8,2.4-2.8,3.7c1.7,2.3,3.5,4.4,6.2,6.2c0.1-1.6,0.3-2.8,0.3-4.1c0.3-3.3,0.6-6.5,1.6-9.6c0.4-1.4,1.1-2.8,1.7-4.5
	c-0.6-0.7-1.3-1.6-2-2.3c-0.4-0.6-0.8-1-1.1-1.6c-0.3-0.4-0.3-0.9,0.1-1.1c0.4-0.3,0.7-0.1,1,0.1c0.6,0.6,1.1,1.1,1.7,1.7
	c0.4,0.6,1,1,1.4,1.6c0.4-0.4,0.9-0.8,1.4-1.1c1.6-1.1,3.1-1.7,5.1-1.3c1.3,0.3,2.3,1.3,3.1,2.3c0.4,0.6,0.8,1.1,1.3,1.7
	c0.9-0.8,1.7-1.6,2.6-2.4c0.3-0.3,0.7-0.6,1.1-0.8c0.3-0.1,0.7-0.1,0.8,0s0.3,0.6,0.1,0.8c-0.1,0.4-0.4,0.7-0.7,1c-1,1-2,2-3.1,3
	c2.4,6.1,2.6,12.3,2.8,18.8c0.3-0.3,0.6-0.4,0.7-0.6c0.9-1.3,1.8-2.6,2.6-3.8c1.6-3,2.6-6.2,3.8-9.6c-0.8-0.3-1.6-0.6-2.3-0.9
	c-0.3-0.1-0.4-0.1-0.7-0.3c-0.4-0.1-0.7-0.6-0.6-1c0.1-0.4,0.6-0.7,1-0.6c0.9,0.1,1.6,0.4,2.4,0.7c0.3,0.1,0.4,0.1,0.9,0.3
	c0.3-0.6,0.4-1.1,0.7-1.6c0.9-1.8,1.7-3.5,3-5.1c1.4-1.7,3.1-2.7,5.4-2.1c0.1,0,0.3,0,0.4,0c0.3-0.8,0.7-1.7,1-2.7
	c0.1-0.4,0.4-0.9,0.6-1.3c0.4-0.8,0.7-1,1.3-0.8c0.4,0.1,0.6,0.6,0.3,1.4c-0.6,1.4-1,3-1.6,4.4c1.6,1.8,2.4,4.1,2.4,6.5
	c0.1,2.3-0.1,4.7-0.1,7.1c1.1,0.1,2.4-0.1,3.7-0.3c0.9-0.1,1.3,0,1.4,0.6c0.1,0.6-0.3,1-1,1.1c-1.1,0.3-2.3,0.3-3.4,0.4
	c-0.4,0-0.7,0-1.3,0.1c-1.4,4.8-4,9.1-6.9,13.2c1.4,0.6,2.7,1.1,4,1.7c0.3,0.1,0.7,0.3,0.9,0.4c0.1,0.3,0.4,0.7,0.3,0.9
	c-0.1,0.3-0.6,0.4-0.9,0.4c-0.3,0-0.7-0.1-1-0.3c-1.4-0.6-3-1.1-4.7-1.8c-0.4,0.4-0.7,1-1.3,1.4c-2.8,2.8-6.2,5.2-9.6,7.2
	c-0.7,0.4-0.8,0.9-0.8,1.6c0,10.2,0.1,20.4,0.1,30.5c0,0.6,0,1.1,0,1.8c0.4,0,0.9,0,1.1,0c1.4,0,2.8,0,4.1-0.1c0.3,0,0.4,0,0.6,0
	c0.3,0.1,0.6,0.4,0.7,0.9c0,0.1-0.3,0.6-0.6,0.7c-0.6,0.1-1.1,0.3-1.8,0.3c-1.3,0.1-2.7,0.1-4.1,0.3c-0.1,7.4-0.1,14.6-0.3,22
	c0.6,0,1,0,1.6,0c1.3,0,2.6,0,3.8,0c0.8,0,1.3,0.4,1.1,1c-0.1,0.7-0.6,0.9-1.1,0.9c-1.3,0-2.6,0-3.8,0c-0.4,0-1,0-1.4,0
	c0,5.4,0,10.8,0,16.3c3.1-1.4,5.7-3.4,8.1-5.8c-0.9-0.9-1.7-1.6-2.4-2.3c-0.3-0.3-0.7-0.7-1-1.1c-0.3-0.4-0.3-0.9,0-1.1
	c0.3-0.3,0.7-0.3,1.1,0c0.9,0.6,1.6,1.3,2.3,1.8c0.4,0.4,0.8,0.7,1.3,1.3c4.1-5,6.5-10.8,8.6-16.9c-0.7-0.3-1.4-0.4-2.1-0.6
	c-0.3-0.1-0.7-0.1-1-0.3c-0.4-0.1-0.7-0.4-0.6-0.9c0.1-0.3,0.6-0.7,0.9-0.7c0.6,0,1.1,0,1.8,0.1c0.6,0.1,1,0.3,1.7,0.4
	c0.6-2.1,1.1-4.2,1.6-6.1c-1.4-0.9-2.8-1.6-4.2-2.4c-0.4,0.9-1,1.7-1.4,2.7c-0.1,0.4-0.4,0.7-0.6,1.1c-0.4,0.7-0.9,0.9-1.3,0.6
	c-0.6-0.4-0.4-1-0.1-1.4c0.6-1.3,1.1-2.6,1.8-3.7c0.1-0.3,0.3-0.4,0.4-0.7c-3.8-4.5-6.7-9.8-8.5-15.4c-0.6,0.1-1,0.3-1.4,0.4
	c-0.3,0.1-0.7,0.1-1,0.1c-0.3-0.1-0.6-0.4-0.7-0.7c0-0.1,0.1-0.6,0.4-0.7c0.1-0.1,0.6-0.3,0.8-0.4c0.4-0.1,0.9-0.4,1.4-0.6
	C176.8,306.8,175.7,300.1,178.5,293.4z M141.9,233.6c0.7,0,1.4,0.1,2.3,0.1c1.7-3.8,3.1-7.9,3.8-12.5c-0.9,0.7-1.1,1.6-1.4,2.3
	c-1,2.4-2.1,4.8-3.1,7.2C142.9,231.8,142.4,232.8,141.9,233.6c-0.9,2-2.1,3.5-4,4.7c0.3,1.4,0.4,2.7,0.7,4.2
	c1.8-2.4,3.5-4.4,4.7-6.9C142.5,235.1,141.9,234.6,141.9,233.6z M141.9,246.3c0.1-0.1,0.3-0.4,0.4-0.6c1.1-1.3,2.3-2.6,3.3-3.8
	c3.4-4.5,4.8-9.8,5-15.4c0-0.7,0-1.4-0.4-2.1c-1.8,7.4-4.2,14.3-9.8,20C141.2,244.7,142.2,245,141.9,246.3c-0.9-0.3-1.7-0.4-2.8-0.8
	c0.1,1,0.3,1.7,0.4,2.6C140.5,247.4,141.2,246.8,141.9,246.3z M160.5,431.1c1.4-21,1.3-41.6,1.3-62.3c-1.1-0.6-2.1-0.9-3-1.4
	c-0.7-0.4-0.8-1-0.6-1.4c0.4-0.6,0.9-0.4,1.4-0.3c0.7,0.3,1.3,0.6,2.1,0.9c0-0.6,0-1,0-1.4c-0.3-9.4-0.4-18.6-0.7-27.9
	c-0.3-10.2-0.4-20.4-0.6-30.6c-0.1-9.6-0.3-19.4,0.1-29c0-0.3,0-0.6,0-0.9c-0.6-0.3-1.1-0.4-1.6-0.7c-0.4-0.3-1-0.6-1.4-1
	c-0.3-0.3-0.6-0.7-0.1-1c0.3-0.1,0.7-0.3,1-0.3c0.3,0,0.6,0.3,1,0.4c0.4,0.1,0.7,0.4,1.3,0.6c0.4-6.7,0.7-13.3,1.1-19.8
	c-0.1,0-0.1-0.1-0.3-0.1c-0.6,0.6-1.1,1.1-1.6,1.8c-1,1.4-1.7,3-2.1,4.7c-1.3,4.5-1.4,9.4-1.4,14c-0.1,21.5,0,43.1,0,64.7
	c0,1.4,0.1,2.7,0.1,4.1c0,1.6,0,3.1,0,4.7c0,2.3,0.1,4.5,0.1,6.9c0,2.1,0.1,4.2,0.1,6.4c0.1,3.8,0.3,7.6,0.3,11.6
	c0,3.5-0.3,6.9-0.3,10.5c-0.1,8.9-0.3,17.7-0.3,26.6c0,4.2,0,8.4,0.7,12.6c0.3,2.3,0.8,4.5,2,6.5C159.4,430.4,159.7,431,160.5,431.1
	z M163.1,429.3c0.1,0,0.3,0.1,0.3,0.1c0.6-0.7,1.1-1.4,1.4-2.3c0.6-1.4,1.3-3,1.6-4.5c1.1-5.4,1.6-10.9,1.7-16.4
	c0.3-9.5,0.4-18.8,0.6-28.3c0.1-9.9,0-20,0-29.9c0-7.5,0.1-15,0.1-22.5c0-13.2-0.1-26.2-0.3-39.4c0-5.4-0.1-10.8-0.4-16.1
	c-0.1-3-0.4-6-1.3-8.8c-0.4-1.4-0.9-2.7-1.4-4.1c-0.3-0.9-0.8-1.7-1.8-2.3c-0.7,15.9-1.4,31.4-0.7,47.2c0.3-0.1,0.6-0.1,0.8-0.3
	c0.7-0.3,1.4-0.6,2.1-0.7c0.3,0,0.7,0.1,1,0.4c0.3,0.4,0,0.7-0.4,1c-0.3,0.1-0.7,0.4-1,0.6c-0.8,0.4-1.7,0.7-2.4,1.1
	c0.1,5.4,0.3,10.6,0.4,16c0.1,5.2,0.1,10.5,0.3,16c0.9-0.4,1.4-0.9,2.1-1.1c0.4-0.3,1-0.7,1.6,0c0.3,0.4,0.1,0.9-0.6,1.4
	c-0.8,0.7-1.8,1.3-3,2c0.1,6.8,0.3,13.6,0.4,20.4c0.1,6.8,0.1,13.6,0.3,20.4c0,6.8-0.1,13.6-0.1,20.5c0.3,0,0.6,0,0.8,0
	c0.4,0,1-0.3,1.4-0.1c0.3,0,0.7,0.3,0.7,0.6c0.1,0.3-0.1,0.7-0.4,0.9c-0.3,0.3-0.7,0.3-1.1,0.4c-0.6,0.1-1.1,0.3-1.7,0.4
	C164.2,410.7,164.1,420.1,163.1,429.3z M172.7,377.4c0.8,0.3,0.8,0.3,1.6,0c5-1.7,9.6-4,14-6.7c4.4-2.8,8.1-6.2,11.1-10.6
	c3.1-4.7,5.7-9.6,7.6-14.9c2.3-6,3.7-12.2,4.7-18.4c0.6-4,0.9-7.9,0.7-12c-0.1-3-0.4-5.8-1.3-8.8c0-0.3-0.3-0.4-0.4-1
	c-1.8,11.5-5,22.4-8.5,33.3c0.7,0.3,1.4,0.6,2.1,0.7c0.4,0.1,0.7,0.4,0.7,1c-0.1,0.6-0.6,0.7-1.1,0.6c-0.3,0-0.6-0.1-0.7-0.1
	c-0.6-0.1-1-0.3-1.6-0.3c-0.6,1.4-1,2.7-1.6,4c-2.3,6.1-5,12-8.6,17.4c-3.4,5.1-7.6,9.1-13.3,11.6c-1.6,0.7-2.8,1.6-4.4,2.3
	C172.8,375.9,172.4,376.4,172.7,377.4z M130.8,343.9c-0.4,0.4-0.8,0.7-1.3,1s-0.9,0.4-1.1,0.1c-0.3-0.3-0.1-0.7,0.1-1
	c0.4-0.4,0.7-1,1.1-1.4c0.6-0.6,0.6-1.1,0.4-1.8c-1.7-6.9-2.8-13.9-3.5-21c-0.4-4.5-0.7-9.1-1.1-13.6c0-0.3-0.1-0.7-0.1-1
	c-0.4,0.9-0.6,1.7-0.7,2.6c-0.8,4.2-1,8.5-1.1,12.8c-0.3,8.8,0.8,17.3,3,25.8c2.1,8.5,6.5,15.4,13.6,20.8c4.1,3.1,8.6,5.4,13.3,7.5
	c0.1,0,0.3,0,0.4,0c0-0.7,0-1.3,0-2c0-0.7-0.3-1-0.8-1.3c-0.9-0.4-1.8-0.9-2.7-1.3c-5.7-2.6-10.1-6.5-13.2-12
	c-2.3-4.1-4.1-8.2-5.5-12.8C131,344.7,130.9,344.3,130.8,343.9z M153.1,368.5c0.3-0.7,0.1-0.9-0.4-1.1c-2.8-1.1-5-3.4-6.7-5.8
	c-2.4-3.3-4.2-6.9-5.5-10.8c-1.4-4.2-2.4-8.8-3.4-13.2c-1.3-6.1-2.6-12-4-18.1c-1-4.2-2.4-8.5-4.4-12.5c-0.4-0.7-0.8-1.4-1.3-2.3
	c0.6,6.7,0.9,13.2,2,19.8c0.6-0.3,1-0.6,1.4-0.7c0.4-0.1,0.8-0.3,1.4-0.3c0.3,0,0.6,0.3,0.7,0.4c0,0.1-0.1,0.6-0.4,0.7
	c-0.7,0.4-1.4,1-2,1.4c-0.6,0.3-0.7,0.9-0.6,1.4c0.6,3.1,1.1,6.4,1.8,9.5c1.7,7.5,4.4,14.6,8.5,21.1
	C143.2,363.1,147.9,366,153.1,368.5z M153,282.8c-0.3-0.1-0.3-0.3-0.4-0.3c-0.9-0.4-1.7-0.9-2.6-1.3c-5.2-2.8-9.6-6.7-12.6-11.8
	c-2-3.3-3.4-6.8-4.5-10.5c-0.1-0.4-0.3-0.8-0.4-1.3c-0.9,0-1.6,0.1-2.1,0.1c-0.4,0-0.9-0.1-1-0.6c-0.1-0.6,0.3-0.7,0.7-0.9
	c0.6-0.1,1.1-0.3,1.8-0.4c-3.1-10.9-4.8-22.1-4.2-33.4c-0.3,0.6-0.6,1.1-0.7,1.7c-1.6,4.5-2,9.2-2,13.9c-0.1,6.9,0.8,13.7,2.8,20.4
	c2.4,8.2,6.9,15,14,20c3.4,2.4,7.2,4.1,11.1,5.9c0.1,0,0.3,0,0.4,0C153,283.8,153,283.4,153,282.8z M142.9,272.3
	c0.1-0.6,0.1-1,0.3-1.4c0.1-0.4,0.4-0.7,0.9-0.6c0.3,0.1,0.6,0.4,0.6,0.7c0.1,0.6,0.1,1.3,0.1,1.8c-0.1,0.9,0.1,1.4,0.9,2
	c2.1,1.8,4.4,3.4,6.8,4.8c0.1,0.1,0.4,0.1,0.7,0.3c0-1.3,0-2.5,0-3.8c-2.4-1-4.4-2.6-6.1-4.4c-2.6-2.7-4.7-5.7-6.2-9.1
	c-2.1-4.4-3.4-9.2-4.4-14c-1-5.2-1.8-10.5-2.8-15.7c-0.6-3.3-1.4-6.5-2.8-9.5c-0.1-0.3-0.3-0.6-0.7-1.1c0.1,6.4,0.3,12.3,1.6,18.6
	c0.4-0.4,0.6-0.9,0.9-1.1c0.3-0.4,0.7-0.6,1.1-0.3c0.4,0.3,0.3,0.7,0.1,1.1c-0.4,0.7-0.8,1.4-1.3,2.1c-0.3,0.4-0.4,0.8-0.3,1.4
	c1,5.2,2.4,10.3,4.1,15.3c1.4,3.8,3,7.6,5.4,11.1C141.9,271,142.4,271.6,142.9,272.3z M172.8,372.5c1.8-1,3.7-2,5.4-3
	c2.8-1.6,5.2-3.5,7.5-5.9c2.8-3.3,5.1-6.8,7.1-10.5c2.6-5,4.7-10.1,6.5-15.3c1.4-4,2.7-8.1,4-12.2c0.1-0.4,0.1-1,0-1.1
	c-0.4-0.6-1-1-1.6-1.6c-0.4-0.6-0.9-1.1-1.4-1.8c-0.1,0.7-0.4,1.1-0.4,1.7c-1.3,5.2-2.6,10.5-4,15.7c-1.7,6.2-4,12.2-7.4,17.9
	c-3,5-6.9,9.2-12.2,11.9c-1.1,0.6-2.3,1-3.5,1.6C172.8,370.5,172.8,371.5,172.8,372.5z M195.2,325.6c-1.1-1.3-2.3-2.4-3.1-3.5
	c-2.3-3.1-3.7-6.7-4.2-10.3c-0.6-3.1-0.7-6.4-1.1-9.5c-0.3-2.4-0.6-5-1.3-7.2c-0.1-0.3-0.3-0.6-0.3-0.7c-0.4,2.5-0.9,5.1-0.7,7.8
	c0.1,1.7,0.3,3.4,0.4,5.1c0.3,3,0.7,6,1.7,8.8c1.4,4.4,3.4,8.4,6.4,11.8c0.4,0.6,0.9,1,1.4,1.7C194.6,327.9,194.9,326.6,195.2,325.6
	z M187.3,254.9c-0.1,0-0.1-0.1-0.3-0.1c-0.6,0.7-1.3,1.6-1.7,2.4c-1,1.7-1.8,3.5-2.6,5.4c-1.1,2.8-2.3,5.7-3.4,8.4
	c-1.3,3.1-3.3,5.7-5.9,7.7c-0.3,0.1-0.6,0.4-0.6,0.7c0,1.1-0.1,2.1,0.1,3.4c2.7-1.7,5.9-5.1,6.7-7.1c-0.3-0.4-0.7-0.9-1-1.4
	c-0.1-0.3-0.1-0.7,0.1-0.9c0.1-0.1,0.7-0.1,1,0c0.4,0.1,0.7,0.6,1.1,1C184,268.1,185.7,261.6,187.3,254.9z M193.5,332.5
	c0.6-0.9,0.1-1.3-0.3-1.7c-2.8-2.5-5-5.7-6.7-9.2c-1.8-3.8-3-7.9-3.5-12.2c-0.7-4.4-1-8.8-0.4-13.3c0.1-1,0.3-1.8,0.4-3.1
	c-0.9,0.7-1.1,1.4-1.4,2.1c-1.3,3-1.7,5.9-1.4,9.1c0.4,5.2,1.7,10.3,3.8,15.3c1.4,3.4,3.3,6.5,5.7,9.4
	C190.7,330.4,191.8,331.7,193.5,332.5z M172.8,287.6c1.1-0.9,2.1-1.6,3.1-2.3c3.7-2.7,6.7-5.9,9.1-9.8c2-3.3,3.7-6.5,4.5-10.2
	c0.6-2.8,0.9-5.5,0.1-8.4c0-0.3-0.3-0.6-0.3-0.7c-1,3.7-2,7.2-2.8,10.8c0.4,0.1,0.9,0.3,1.3,0.4c0.4,0.1,0.7,0.4,0.6,0.9
	c-0.1,0.3-0.6,0.4-0.9,0.4c-0.6,0-1.1-0.1-1.6-0.1c-0.1,0.4-0.3,0.7-0.4,1.1c-2.3,6.2-5.9,11.3-11.5,15
	C172.8,285.5,172.6,286.2,172.8,287.6z M208.5,303.2c-0.4,0.3-0.9,0.6-1.1,1c-0.9,1-1.7,2-2.3,3.1c-2.3,3.8-3.4,8.2-4.5,12.3
	c0.7,0.6,1.3,0.9,1.8,1.3c0.6,0.6,1,1.1,1.7,1.8C206,316.2,207.3,309.9,208.5,303.2z"/>
</svg>
