<?xml version="1.0" encoding="utf-8"?>
<!-- Generator: Adobe Illustrator 18.0.0, SVG Export Plug-In . SVG Version: 6.00 Build 0)  -->
<!DOCTYPE svg PUBLIC "-//W3C//DTD SVG 1.1//EN" "http://www.w3.org/Graphics/SVG/1.1/DTD/svg11.dtd">
<svg version="1.1" id="Calque_1" xmlns="http://www.w3.org/2000/svg" xmlns:xlink="http://www.w3.org/1999/xlink" x="0px" y="0px"
	 viewBox="95.6 458.9 149.5 147.6" enable-background="new 95.6 458.9 149.5 147.6" xml:space="preserve">
<path fill="#979984" d="M160.9,527c0.3-1.4,0.6-2.8,0.8-4.1c2.7-11.2,5.8-22.2,9.6-33c1.8-5.1,3.8-10.2,5.8-15.3
	c0.3-0.7,0.6-1.3,0.9-1.8c1-1.6,2.8-1.7,4-0.3c0.4,0.6,0.9,1.3,1.1,2c0.6,2.3,1.3,4.5,1.7,6.9c1.6,10.2,3.1,20.4,4.7,30.6
	c0.1,1,0.3,2,0.4,3c0.6-0.1,0.9-0.6,1-0.9c3.7-5,7.4-9.8,11.2-14.7c1.3-1.7,2.6-3.4,4-5.2c0.3-0.4,0.7-0.9,1.1-1.3
	c0.9-0.9,1.8-1.1,3-0.9c1.1,0.4,1.6,1.4,1.6,2.5c0,1.3,0,2.7-0.1,4c-0.7,7.8-2.3,15.4-3.8,23.2c-0.1,0.4-0.1,0.7-0.3,1.4
	c0.6-0.6,1-0.9,1.3-1.1c5.4-5.2,10.8-10.3,16.3-15.6c1.3-1.1,2.6-2.3,3.8-3.3c0.4-0.3,1-0.7,1.4-0.9c2-0.9,3.8,0,4.2,2.1
	c0.1,0.9,0.3,1.7,0.1,2.5c-0.1,2.7-0.4,5.4-0.7,8.1c-0.9,6.2-1.7,12.3-3.4,18.4c-1.7,6.7-4.2,13.2-7.5,19.1c-2.3,4.2-5.4,7.9-8.9,11
	c-0.3,0.1-0.4,0.4-0.7,0.6c0,0-0.1,0.1-0.1,0.3c1.7,1.6,3.3,3,5,4.5c4.4,4.1,8.4,8.5,12.3,13c2,2.4,4,5,5.4,7.8c0.6,1,1,2.3,1.1,3.4
	c0.3,2.3-0.9,4-3.3,4.4c-0.7,0.1-1.6,0.1-2.3,0.1c-9.9-1.1-19.7-3-29.5-5.7c-3.8-1-7.5-2.4-11.1-4.2c-4.1-2.1-7.6-5.1-10.1-9.2
	l-0.1-0.1c-1.1,0.7-2.1,1.4-3.3,2c-4.2,2.5-8.9,3.8-13.7,4.7c-4.5,0.9-9.1,1.1-13.6,1.3c-4.2,0.3-8.4,0.6-12.6,0.7
	c-5.2,0.1-10.6,0.3-15.9,0.3c-0.6,0-1.1-0.1-1.7-0.3c-1.4-0.4-2.4-1.7-2.1-3.3c0.1-1,0.4-2,1-2.8c0.6-1,1.4-2,2.3-2.8
	c3.1-3,6.4-6,9.5-8.9c0.3-0.3,0.6-0.6,1.1-1c-0.9-0.1-1.6-0.4-2.3-0.6c-7.5-1.6-14.3-4.8-21-8.6c-1.6-0.9-3.1-1.8-4.5-3
	c-0.6-0.4-1.3-1-1.7-1.7c-1.1-1.6-0.3-3.5,1.7-3.8c0.6-0.1,1.3-0.1,1.8-0.1c2.8,0.1,5.5,0.3,8.4,0.3c5.9,0,11.8-0.1,17.7-0.1
	c1.7,0,3.4,0,5.2-0.1c3.5-0.1,6.9-0.4,10.5-0.6c0.4,0,0.7-0.1,1.1-0.1c-1-2.5-2.1-5-3.1-7.4c-3.4-8.4-6.1-17.1-8.6-25.8
	c-1.3-4.5-2.6-8.9-3.7-13.5c-0.4-1.7-0.6-3.5-1-5.2c0-0.1,0-0.3,0-0.6c0-0.9,0.3-1.4,1-1.7s1.4-0.1,1.8,0.4c0.3,0.3,0.6,0.7,0.7,1.1
	c1.1,2.4,2.7,4.7,4.4,6.8c5.7,7.1,11.8,13.7,18.1,20.1C159.2,525.5,160.1,526.2,160.9,527z M185.2,568.5c1.8,0.8,3.7,1.3,5.7,0.8
	c5-0.8,9.8-2.3,14-5c5.5-3.5,10.1-8.1,13.3-13.7c2.8-5,5-10.3,6.4-15.9c1.8-6.7,3-13.5,4.1-20.3c0.1-1,0.3-2,0.4-3
	c-3.8,7.8-7.4,15.7-11.9,23.4c0.4,0.3,0.7,0.6,1,0.8c0.4,0.4,0.6,0.9,0.1,1.4c-0.3,0.4-0.9,0.6-1.6,0.3c-0.3-0.1-0.6-0.3-1-0.4
	c-5.1,8.2-11.1,15.6-19.1,21.2c0.1,0.7,0.4,1.3-0.3,1.7c-0.7,0.6-1.3,0.1-1.7-0.1c-3.4,1.7-6.7,3.4-9.9,5.1c0,0.8,0,1.8,0,2.8
	C185.2,568,185.2,568.3,185.2,568.5z M213.5,535.3c-0.6-0.6-1.1-1.1-1.6-1.7c-0.4-0.4-0.6-1-0.1-1.6c0.4-0.4,1-0.4,1.6-0.1
	c0.4,0.3,0.9,0.6,1.4,1c4.2-7.2,7.8-14.7,11.3-22.1c-0.3,0.1-0.6,0.3-0.7,0.4c-9.4,9.4-18.7,18.7-28.6,27.6
	c-5.4,5-9.8,10.8-13.7,16.9c-0.1,0.3-0.4,0.7-0.3,1c0.6,1.7,1.1,3.3,1.7,5.1c3-1.4,5.7-3,8.5-4.8c-0.4-1-0.7-1.8-1.1-2.7
	c-0.1-0.6-0.1-1,0.4-1.4c0.6-0.3,1-0.1,1.4,0.3c0.3,0.3,0.6,0.7,0.9,1.1c0.3,0.3,0.4,0.6,0.7,1C203.1,550,208.7,543,213.5,535.3z
	 M180.3,551.3c0.3-0.4,0.4-0.6,0.6-1c0.8-2.1,2-4.1,2.5-6.2c1.7-5.4,2-10.9,1.7-16.6c-0.3-5.8-1-11.5-1.8-17.1c-1-7.1-2-14-3-21.1
	c-0.1-1.3-0.3-2.4-0.6-3.7c-0.1,0-0.1,0-0.3,0c-1,11.8-2.1,23.5-3.1,35.4c0.7,0.3,1.6,0.6,1.6,1.6c-0.1,1-1,1-1.7,1.1
	c0,0.1-0.1,0.1-0.1,0.3c-0.7,5.8-1.3,11.6-2,17.4c-0.1,0.6,0.1,1,0.4,1.4c1.6,2.1,3,4.2,4.4,6.4
	C179.5,549.8,179.8,550.6,180.3,551.3z M178.1,573.4c1.6-1.1,2.4-2.7,2.7-4.5c0.4-2.7-0.1-5.4-0.9-7.9c-1.4-4.5-3.8-8.4-6.7-12.2
	c-3.8-5.2-8.2-10.1-12.6-14.7c-4.7-5-9.3-9.8-14-14.6c0-0.1-0.1-0.1-0.6-0.3c6.1,11.6,11.9,23.1,18.7,34.1c0.6-0.1,1.1-0.3,1.6-0.4
	c0.6,0,1,0.1,1.3,0.7c0.1,0.6,0,1-0.4,1.3c-0.3,0.3-0.6,0.4-1,0.7C169.7,561.8,173.8,567.6,178.1,573.4z M184.3,572.4
	c-1.3,1.4-1.3,2.8-0.4,4.1c0.4,0.8,1,1.7,1.7,2.4c1.8,2.1,4.1,3.7,6.5,5c3,1.6,5.9,2.8,9.2,3.5c5.8,1.4,11.5,2.7,17.3,4
	c3.4,0.7,6.8,1.3,10.2,1.8c0-0.1,0-0.1,0.1-0.3c-5.5-2.8-11.1-5.7-16.6-8.5c-0.6,0.6-1,1.3-1.8,0.8c-1-0.4-0.4-1.4-0.4-2
	c-0.1-0.1-0.3-0.1-0.4-0.3c-5.2-3-10.5-6-15.7-8.9c-0.4-0.3-0.9-0.3-1.3-0.3c-1.1,0-2.3,0.1-3.5,0.1
	C187.1,573.9,185.7,573.2,184.3,572.4z M176.7,485.7L176.7,485.7c-0.3,0.3-0.4,0.6-0.4,1c-2.6,7.9-5.2,15.7-7.7,23.7
	c-1.8,6.1-3.5,12.2-5.2,18.1c-0.1,0.7-0.1,1.1,0.4,1.6c2.3,2.5,4.7,5.1,6.9,7.8c0.1,0.1,0.3,0.3,0.7,0.6c0.6-5.2,1.1-10.3,1.7-15.4
	c-0.6-0.3-1-0.4-1.4-0.7c-0.4-0.3-0.7-0.6-0.6-1.1c0.1-0.6,0.6-0.7,1.1-0.7c0.4,0,0.7,0,1.3,0C174.4,508.8,175.5,497.1,176.7,485.7z
	 M230.9,591.4c0.1,0,0.1-0.1,0.3-0.1c-5.8-9.1-13.3-16.7-21.1-24.1c-4.1,3-8.6,4.8-13.7,6.1c5.1,2.8,10.1,5.7,15.2,8.1
	c0.3-0.3,0.4-0.6,0.7-0.9c0.1-0.3,0.4-0.4,0.6-0.7c0.6-0.6,1.3-0.7,1.7-0.3c0.4,0.4,0.6,0.8,0.1,1.7c-0.3,0.4-0.6,0.8-0.9,1.4
	C219.4,585.4,225.1,588.4,230.9,591.4z M143.9,577.8c-5.9,1.8-11.6,3.7-17.4,5.5c2.6,0.1,5.1,0.1,7.7,0c3.7-0.1,7.4-0.4,11.1-0.6
	c5.7-0.3,11.5-0.3,17.1-1.1c3.7-0.6,7.4-1.3,10.8-2.7c0.3-0.1,0.6-0.3,0.9-0.4c-1.4-0.6-2.8-1-4.1-1.6c-2.4-1.1-4.5-2.7-6.4-4.5
	c-0.6-0.6-1-0.6-1.7-0.4c-3.5,1.1-7.1,2.4-10.8,3.5c-1.4,0.4-3,1-4.5,1.4c0.3,0.7,0.7,1.3,1,2c0.1,0.4,0,1-0.3,1.1
	c-0.3,0.1-0.8,0.1-1.1,0c-0.3-0.1-0.6-0.4-0.7-0.7C144.6,578.9,144.4,578.3,143.9,577.8z M142.8,519.4c0.1,0.3,0.1,0.7,0.3,1
	c2.3,6.7,4.5,13.3,6.9,19.8c2.4,6.2,5.1,12.5,8.5,18.1c2.1,3.5,4.4,6.9,7.1,9.9c1.8,2,3.8,3.7,6.4,4.8c0.7,0.3,1.4,0.6,2.1,0.9
	c0-0.1,0.1-0.1,0.1-0.3c-4.4-5.2-7.8-11-11.3-16.7c-0.4,0-0.7,0.1-0.8,0.1c-0.3,0-0.6,0-0.9,0c-0.8-0.1-1-1-0.4-1.6
	c0.3-0.3,0.6-0.4,1-0.7C154.8,543.2,148.9,531.1,142.8,519.4z M197.6,521.4c-0.3,0.6-0.4,0.9-0.6,1.3c-2.3,5.4-4.7,10.9-6.9,16.3
	c-0.3,0.6-0.3,1.1-0.4,1.7c0.1,0.1,0.3,0.1,0.4,0.3c0.1-0.1,0.1-0.4,0.3-0.6c3.4-3.5,6.8-7.1,10.2-10.6c1.6-1.6,2-1.6,2.3-4.4
	c0.6-6.5,1.7-13,3-19.5c0.3-1.1,0.4-2.4,0.6-3.5c-0.1,0-0.1,0-0.3-0.1c-2.7,5.5-4.8,11.3-7.4,16.9c0.4,0.3,0.7,0.4,1,0.6
	c0.6,0.4,0.9,0.9,0.6,1.4s-0.9,0.7-1.6,0.4C198.2,521.7,197.9,521.5,197.6,521.4z M116.9,558.6c0.4,0.3,0.7,0.4,1,0.6
	c3.3,1.6,6.7,3,10.2,3.8c9.8,2.5,19.6,4,29.6,3.8c0.1,0,0.3-0.1,0.4-0.1c-0.8-1.3-1.8-2.5-2.6-3.8c-0.4-0.7-0.8-0.8-1.6-0.8
	c-5-0.1-10.1-0.4-15-0.7c-1.3,0-2.7-0.1-4.1-0.3c-0.1,0.7-0.1,1.4-1,1.6c-1.3,0-1.1-1-1.4-1.7C127.2,560,122.1,559.3,116.9,558.6z
	 M113.9,555.5c6.2,1.3,12.3,2.1,18.6,2.7c0.1-0.4,0.1-0.8,0.3-1.3c0.1-0.6,0.4-1.1,1.1-1.1c0.7,0,1,0.4,1.1,1.1
	c0.1,0.6,0.1,1,0.3,1.7c6.1,0.7,12.2,1,18.4,1.1c-1.1-2.3-2.3-4.2-3.4-6.5c-5.8,1.4-11.9,1.7-17.9,1.8
	C126.1,555.2,120.1,555.4,113.9,555.5z M142.4,575.5c-0.1-0.4-0.1-0.7-0.3-1c-0.1-0.4-0.1-0.9,0.3-1.1c0.4-0.3,1-0.1,1.3,0.1
	c0.4,0.4,0.7,0.8,1,1.1c3.8-1.1,7.4-2.3,11.1-3.4c-1.6-0.1-3.1-0.1-4.5-0.1c-4.5,0-8.9-0.7-13.5-1.4c-0.8-0.1-1.6,0.1-2.1,0.7
	c-0.7,0.7-1.4,1.4-2.1,2.1c-2.6,2.5-5,5-7.5,7.5c-0.3,0.3-0.4,0.4-0.6,0.7l0.1,0.1C131,579.2,136.6,577.5,142.4,575.5z M196.1,518
	c1.7-4,3.4-7.9,5.1-11.8c-0.4,0.1-0.7,0.4-0.9,0.7c-0.9,1.1-1.7,2.3-2.7,3.4c-2.3,2.5-4.4,5.2-6.7,7.8c-0.6,0.7-0.9,1.3-0.9,2.1
	c0.3,3,0.3,6,0.6,8.9c0,0.1,0,0.3,0.1,0.6c1.4-3.3,2.7-6.4,4.1-9.4c-0.9-1-1-1.3-0.7-1.7C194.6,517.8,195.4,518,196.1,518z"/>
</svg>
