<?xml version="1.0" encoding="utf-8"?>
<!-- Generator: Adobe Illustrator 18.0.0, SVG Export Plug-In . SVG Version: 6.00 Build 0)  -->
<!DOCTYPE svg PUBLIC "-//W3C//DTD SVG 1.1//EN" "http://www.w3.org/Graphics/SVG/1.1/DTD/svg11.dtd">
<svg version="1.1" id="Calque_1" xmlns="http://www.w3.org/2000/svg" xmlns:xlink="http://www.w3.org/1999/xlink" x="0px" y="0px"
	 viewBox="271.4 436 105.4 194.5" enable-background="new 271.4 436 105.4 194.5" xml:space="preserve">
<path fill="#545B52" d="M295.5,523.2c-1.7-1.6-3.3-2.8-4.8-4.2c-0.6-0.6-1-1.1-0.7-2.1c0.3-0.7,1.1-1.3,2.1-1.1
	c1.1,0.1,2.4,0.4,3.5,0.6c0.4,0.1,0.9,0.1,1.6,0.3c1.4-5.5,2.7-10.8,4.1-16.3c-1.1-1-2.4-2-3.5-3.1c-0.7-0.6-1.4-1.1-2.1-1.8
	c-0.6-0.6-1-1.3-0.7-2.1c0.3-0.9,1-1.3,1.8-1.3c1.3-0.1,2.6,0,3.8,0c1.1,0.1,2.1,0.3,3.1,0.4c1.7-4,3.3-7.9,5.1-12
	c-0.4,0.3-0.6,0.6-0.9,0.9c-1.4,1.1-2.8,2.4-4.4,3.5c-0.9,0.7-2,0.9-3.1,0.4c-1.7-0.6-2.5-2.3-1.8-4.1c0.3-1,0.9-2,1.6-2.8
	c1-1.3,2.1-2.4,3.1-3.7c0.3-0.3,0.6-0.6,0.9-1c-0.6-0.1-1-0.3-1.4-0.6c-1.1-0.4-2.3-0.9-3.3-1.4c-1.3-0.7-2.1-1.8-2.4-3.3
	c-0.6-1.8,0-3.4,1.7-4.2c1.3-0.7,2.7-1,4.1-1.4c0.9-0.3,1.7-0.4,2.7-0.6c-0.1-0.3-0.1-0.4-0.3-0.6c-2.3-3-3.8-6.2-5.2-9.5
	c-0.4-1.1-0.9-2.3-1.1-3.4c-0.3-1-0.3-2.1,0.1-3.1c0.6-1.6,1.8-2.5,3.5-2.5c1.3,0,2.4,0.4,3.5,0.9c2.8,1.3,5.5,3,8.1,5
	c1.1,0.9,2.3,1.7,3.5,2.7c0.3-0.9,0.4-1.7,0.6-2.4c0.4-1.6,1.3-3,2.4-4.2c1.8-2.1,5.4-2.4,7.2,0.9c0.6,1.1,1,2.3,1.4,3.5
	c0.1,0.4,0.3,1,0.4,1.7c0.4-0.4,0.6-0.7,0.9-1c1.3-1.4,2.5-3,4-4.2c0.7-0.7,1.7-1.1,2.5-1.4c1.7-0.6,3.4,0.1,4.2,1.8
	c0.4,0.7,0.6,1.7,0.6,2.6c0.1,2.1-0.1,4.1-0.7,6.2c-0.1,0.3-0.1,0.7-0.3,1.3c0.6-0.3,1-0.4,1.4-0.6c1.6-0.6,3.3-1.3,4.8-1.8
	c0.6-0.1,1.4-0.1,2-0.1c2.4,0.1,4,2.3,3.5,4.7c-0.1,1-0.6,2-1,2.7c-1.1,2.1-3,3.7-4.8,5.1c-0.7,0.6-1.3,1.1-2.1,1.7
	c0.4,0.1,0.7,0.1,1,0.3c1.6,0.4,3.1,0.7,4.7,1.3c1.4,0.4,2.6,1.4,3.3,2.8c1.3,2.1,0.9,4.5-1.1,6c-1,0.7-2.1,1.3-3.4,1.7
	c-1.8,0.6-3.7,0.7-5.5,1.1c-0.4,0.1-1,0.1-1.4,0.3c1.4,3.1,2.7,6.1,4.1,9.2c0.9-0.4,1.7-0.7,2.5-1.1c0.9-0.3,1.6-0.7,2.4-1
	c1.6-0.4,2.7,0.7,2.3,2.3c-0.1,0.6-0.4,1.1-0.7,1.7c-1.1,2.1-2.3,4.2-3.4,6.4c-0.3,0.4-0.4,0.9-0.3,1.3c1.7,7.1,2,14.2,2.1,21.4
	c0,0.3,0,0.6,0,0.8c0,0.1,0,0.1,0.1,0.4c0.9,0.1,1.7,0.1,2.5,0.3c1.1,0.1,2.4,0.3,3.5,0.6c1.8,0.4,2.4,2,1.4,3.5
	c-0.4,0.6-1,1.3-1.6,1.7c-1.6,1.1-3.3,2.1-5,3.1c-0.6,0.3-1,0.6-1.4,0.9c-1.1,12.5-2.3,24.6-3.4,37c1.6,0.4,3.3,1,4.8,1.4
	c0.4,0.1,0.7,0.1,1.1,0.4c1.3,0.7,1.4,2,0.1,2.8c-0.3,0.3-0.7,0.4-1.1,0.6c-1.7,0.7-3.4,1.4-5.1,2.1c-0.7,0.3-1.1,0.7-1.1,1.4
	c-1,7.1-2.7,13.9-4.8,20.7c-0.7,2.1-1.6,4.2-2.7,6.1c-1.7,3-4.2,4.7-7.6,5.1c-7.9,1-15.2-0.6-21.8-5c-2.7-1.7-4.5-4.2-5.9-7.1
	c-1.7-3.3-3.1-6.7-4.1-10.2c-1.1-3.5-2-7.2-3-10.8c-0.1-0.4-0.3-0.9-0.3-1.3c-1.1-0.1-2.3-0.3-3.4-0.4c-0.6-0.1-1.1-0.3-1.7-0.6
	c-1.6-0.7-1.8-2.1-0.6-3.3c1-1.1,2.1-2.1,3.4-3c0.7-0.6,0.9-1,0.7-2c-1.3-8.6-1.8-17.3-1.3-26.1c0.3-5.4,1-10.9,2.1-16.2
	C295.4,523.8,295.5,523.5,295.5,523.2z M317.1,604.2c-2.3-7.5-3.5-14.9-4.7-22.2s-2-14.9-2.5-22.5c-1.6,0.1-3,0.3-4.5,0.4
	c-0.6,0-1.1,0-1.7-0.1c-1.1-0.4-1.6-1.4-1-2.5c0.3-0.6,0.6-1,1-1.4c1.1-1.1,2.4-2.3,3.5-3.4c0.7-0.6,1.7-1.1,2.1-1.8
	c0.4-0.9,0-2,0-3c0-5.5,0-11,0.1-16.6c0.3-7.4,1.1-14.7,2.1-22c1.3-8.8,2.8-17.4,5-26.1c1-4.1,2.3-8.2,3.3-12.3
	c0.1-0.6,0.3-1.1,0.4-1.8c-0.6,0.3-0.9,0.7-1,1c-1.3,2.3-2.8,4.5-4,6.9c-7.9,15.9-13.5,32.6-16.4,50c-1,5.4-1.6,10.8-1.7,16.3
	c-0.1,7.6,0.4,15.3,1.6,23c1.1,7.5,2.7,14.9,5.2,22.1c1.1,3.1,2.3,6.1,4,8.9C310,600.7,313.1,602.8,317.1,604.2z M325.1,524.6
	c0.4,0.3,0.9,0.4,1.3,0.7c1.1,0.6,2.3,1.1,3.3,1.8c1.4,1,1.4,2.4,0.1,3.5c-0.3,0.3-0.7,0.6-1.1,0.8c-0.9,0.4-1.7,1-2.6,1.4
	c-1,0.4-1.3,1-1.3,2c0,3.4-0.1,6.8-0.1,10.2c-0.1,13.5,0.1,26.8,0.7,40.2c0.1,4.8,0.3,9.6,0.4,14.5c0,1,0,2,0.6,2.8
	c0.1,0.1,0,0.6,0,0.8c0,0.9-0.1,1.8-0.1,2.7c1.6,0,3,0.3,4.2-0.3c0.1-1.8,0.3-3.7,0.3-5.5c0.4-6.2,1-12.3,1.4-18.6
	c0.3-4.7,0.6-9.4,0.7-14c0.3-6.8,0.7-13.6,0.7-20.5c0.1-8.1,0.1-16.3,0.1-24.4c0-5.7-0.1-11.2-0.6-16.9c-0.6-6.9-1.4-13.7-3-20.5
	c-1.1-4.8-2.6-9.6-4.4-14.3c-0.1-0.3-0.3-0.7-0.6-1C326.3,488.5,325.6,506.5,325.1,524.6z M329,470.2l-0.1,0.1
	c0.1,0.1,0.1,0.4,0.3,0.6c1.1,3.3,2.4,6.4,3.4,9.6c3.4,11.6,4.7,23.7,5.1,35.7c0.1,4.1,0.3,8.2,0.1,12.3c-0.1,8.2-0.3,16.3-0.4,24.5
	c0,3-0.3,6.1-0.4,9.1c0,0.4,0.1,1,0.3,1.4c0.9,1.8,2,3.7,2.8,5.5c0.4,1,0.9,2.1,1,3.3c0.1,2-1.1,2.8-2.8,2c-0.6-0.3-1.1-0.6-1.7-0.9
	c-0.9,10.3-1.8,20.7-2.7,31.2c0.9-0.6,1.4-1.3,1.7-2.1c0.7-1.6,1.6-3,2.1-4.7c1.7-5,3-10.1,4-15.2c1.3-6.8,2.1-13.6,2.8-20.4
	c1-9.6,2-19.3,2.5-28.9c0.4-7.1,0.7-14.3,0.1-21.4c-0.4-6-1.3-11.8-3.1-17.4c-1.8-5.7-4.1-11-7.2-16
	C334.5,475.5,331.6,472.8,329,470.2z M323.1,606c-0.1-0.9-0.1-1.6-0.3-2.3c-0.3-4.1-0.6-8.2-0.7-12.3c-0.3-6.2-0.6-12.5-0.7-18.7
	c-0.1-6.5-0.3-13-0.4-19.5c-0.1-10.2,0.1-20.5,0.6-30.7c0.1-3.4,0.3-6.7,0.4-10.1c0.3-6,0.6-11.9,0.6-17.7
	c0.1-6.8,0.1-13.7,0.1-20.5c0-0.4,0-0.9,0-1.4c-0.4,0.6-0.6,1.1-0.7,1.8c-1.4,5.2-2.7,10.6-3.7,16c-1.7,9.1-3.3,18.3-4,27.5
	c-0.4,6.2-1,12.5-1.1,18.7c-0.3,8.8-0.1,17.7,0.7,26.5c0.4,5.7,1,11.2,1.7,16.7c1,7.8,2.3,15.6,4.2,23.2
	C320.3,605.7,320.3,605.7,323.1,606z M338.3,473.9c0.1-1.4,0.4-2.5,0.4-3.8c-0.3-5.1-2.5-8.9-7.4-11c-3.8-1.7-7.9-2-12-1.3
	c-3.7,0.7-6.5,2.4-8.5,5.8c-2.1,3.7-2.1,7.4-0.6,11c0.1,0.4,0.4,0.9,0.7,1.3c0.3-0.6,0.6-1,0.7-1.3c1.6-2.5,3.1-5.1,4.7-7.6
	c0.9-1.1,1.8-2.3,3-3.3c1.4-1.1,3-1.6,4.8-1c1.1,0.4,2.4,0.9,3.4,1.6c2.3,1.3,4.2,3.1,6.1,5C335.3,470.7,336.7,472.2,338.3,473.9z
	 M309.1,461.3c1.8-3,4.5-4.8,7.6-5.8c-2.1-2.8-11.5-8.8-14.2-9.1c-0.4,1-0.6,1.4,0,3C304.2,453.5,306.1,457.5,309.1,461.3z
	 M342.1,470.5c-0.1,0.1-0.3,0.3-0.3,0.3c-0.3,1.8-0.7,3.7-1.7,5.4c-0.3,0.6,0.1,1.3,0.9,1.1c2.3-0.3,4.5-0.7,6.8-1.1
	c0.9-0.1,1.7-0.6,2.4-1c1.1-0.6,1.1-1.4,0.4-2.4c-0.7-0.9-1.7-1.3-2.7-1.6C346.1,471.1,344.1,470.8,342.1,470.5z M338.9,460.7
	c0.9,1.7,1.7,3.4,2.6,5.1c0.1,0,0.3-0.1,0.4-0.1c1.6-1.3,3.1-2.5,4.5-4c0.9-0.9,1.6-1.8,2.4-2.7c0.3-0.4,0.6-1,0.7-1.6
	c0.3-0.9-0.1-1.1-0.9-1c-0.6,0.1-1,0.1-1.4,0.4c-2,1-4,2-6.1,3C340.1,460,339.6,460.5,338.9,460.7z M336.5,458.3
	C336.5,458.3,336.6,458.3,336.5,458.3c0.9-3.1,1.6-5.9,1.7-9.1c0-0.7-0.1-1.3-0.1-2c-1.6,0.6-5,4.2-7.5,8.2
	C332.6,456.4,334.5,457.3,336.5,458.3z M326.8,454.5c-0.6-3-2-7.1-3.1-8.2c-2.6,2.1-2.6,5.2-3.1,8.2
	C322.9,454.5,324.8,454.5,326.8,454.5z M307.4,464.7c-1.6,0.4-3,0.7-4.4,1c-0.9,0.1-1.6,0.4-2.4,0.7c-1,0.4-1.3,1.1-0.7,2
	c0.4,0.6,1,1.1,1.7,1.4c1.3,0.6,2.7,0.9,4.1,1.3c0.3,0.1,0.6,0,0.9,0C306.4,469,306.7,466.8,307.4,464.7z M307.6,474.3
	c-2.3,2.1-4.5,4.2-6.1,6.9c-0.1,0.3-0.3,0.6-0.3,0.9c0,0.6,0.3,0.9,0.9,0.7c0.4-0.1,0.9-0.4,1.1-0.7c1.8-1.7,3.8-3.4,5.7-5.1
	C308.4,476.2,308,475.3,307.6,474.3z M351.5,528.6c1.6-1.1,2.8-2,4.2-3c0-0.1,0-0.1,0-0.3c-1.4-0.1-2.7-0.4-4.2-0.6
	C351.5,526,351.5,527.3,351.5,528.6z M299.1,494.9c0,0.1-0.1,0.1-0.1,0.3c1,1,2.1,1.8,3.3,3c0.3-1,0.6-1.8,0.9-2.7
	C301.6,495.2,300.3,495,299.1,494.9z M309.5,554.2c-1.1,1-2,1.8-2.8,2.5c0,0.1,0.1,0.1,0.1,0.3c0.9,0,1.8-0.1,2.8-0.3
	C309.7,556.1,309.7,555.4,309.5,554.2z M350.2,572.4c-1-0.3-1.8-0.6-2.7-0.9c-0.1,0.9-0.1,1.4-0.3,2.3
	C348.2,573.2,349.1,572.8,350.2,572.4z M295.7,572.8c-0.1-0.9-0.3-1.6-0.4-2.4c-0.7,0.7-1.3,1.3-2,2
	C294,572.5,294.7,572.7,295.7,572.8z M325.1,530.2c0.7-0.4,1.3-0.7,2.1-1.1c-0.9-0.4-1.4-0.7-2.1-1
	C325.1,528.7,325.1,529.3,325.1,530.2z M348.1,494.3c0.1,0,0.1,0,0.3,0c0.3-0.7,0.6-1.4,1-2.3l-0.1-0.1c-0.6,0.1-1,0.4-1.6,0.6
	C347.6,493.2,347.9,493.8,348.1,494.3z M336.6,569.3c-0.1,0.7-0.1,1.1-0.1,1.6c0.4,0.1,0.7,0.4,1.1,0.6l0.1-0.1
	C337.3,570.7,337,570.1,336.6,569.3z M295.9,520.4c0.1,0,0.1-0.1,0.3-0.1c0-0.3,0.1-0.6,0.1-0.9c-0.4,0-0.9,0-1.6-0.1
	C295.4,519.8,295.7,520.1,295.9,520.4z"/>
</svg>
