<?xml version="1.0" encoding="utf-8"?>
<!-- Generator: Adobe Illustrator 18.0.0, SVG Export Plug-In . SVG Version: 6.00 Build 0)  -->
<!DOCTYPE svg PUBLIC "-//W3C//DTD SVG 1.1//EN" "http://www.w3.org/Graphics/SVG/1.1/DTD/svg11.dtd">
<svg version="1.1" id="Calque_1" xmlns="http://www.w3.org/2000/svg" xmlns:xlink="http://www.w3.org/1999/xlink" x="0px" y="0px"
	 viewBox="224.4 212.7 167 223.2" enable-background="new 224.4 212.7 167 223.2" xml:space="preserve">
<g>
	<path fill="#979984" d="M258.5,365.5c1.3-4.1,3-7.8,5.7-10.9c-0.6-1.3-1.1-2.4-1.4-3.5c-0.3-0.7-0.4-1.6-0.3-2.4
		c0.1-1.7,1.6-2.3,2.8-1.3c0.9,0.7,1.6,1.6,2.3,2.4c0.4,0.4,0.7,0.9,1.1,1.3c3.5-2.1,7.4-3.3,11.3-4.1c-0.7-3.5-1.3-7.1-2-10.8
		c-0.7,0-1.3,0.1-1.8,0.1c-1,0-2.1,0.1-3.1,0.1c-1.6,0-2.1-1.3-1.3-2.5c0.6-0.7,1.3-1.4,2-2c1-0.7,2.1-1.4,3.3-2.3
		c-0.1-0.7-0.1-1.7-0.3-2.6c0-0.3-0.4-0.6-0.7-0.9c-2.1-2.1-4.2-4.1-6.2-6.4c-1.7-2-3.3-4.1-5-6.4c-0.7,0.1-1.4,0.4-2.3,0.7
		c-1,0.3-2.1,0.4-3.1,0.6c-0.7,0.1-1.4-0.1-1.7-0.9s-0.1-1.4,0.4-1.8c1-1,2-1.8,3-2.7c0.4-0.3,0.9-0.6,1.3-0.9
		c-2.4-5.1-4.2-10.3-5.5-15.7c-1.4-5.4-2.3-10.8-2.8-16.4c-0.7,0-1.3,0-1.8,0c-0.9-0.1-1.7-0.1-2.6-0.3c-0.9-0.1-1.4-0.7-1.6-1.6
		c-0.1-0.9,0.3-1.4,1-1.8c1.1-0.6,2.3-1.1,3.4-1.7c0.4-0.1,0.9-0.3,1.3-0.4c0-0.7,0-1.4,0-2.1c-0.1-4.5,0-9.1,0.6-13.6
		c0.4-2.8,0.9-5.7,1.8-8.4c0.7-2,1.7-3.8,3.4-5.2c0.4-0.4,0.4-0.7,0.3-1.3c-0.1-1.4-0.4-2.8-0.4-4.2c0-1.3,0.4-2.1,1.3-2.3
		c0.9-0.3,1.8,0.3,2.4,1.4c0.6,1.3,1.1,2.6,1.6,3.8c0.3,0.9,0.7,1.3,1.6,1.6c1.1,0.4,2.3,1.3,3.5,2c0.1-0.3,0.4-0.7,0.6-1.1
		c1.1-2.3,2.1-4.7,3.4-6.9c1.3-2.4,3-4.4,5.2-5.9c2.1-1.6,4.4-2.3,6.9-2.3c3.1,0.1,5.4,1.4,6.7,4.1c1.6,3.3,1.6,6.5,0.7,10.1
		c-0.7,2.4-1.8,4.5-3.4,6.4c-2.4,3-5.2,5.7-8.2,8.1c-1.3,1-2.4,1.8-3.7,2.8c-0.1,0.1-0.4,0.3-0.6,0.4c-0.9,0.9-1.3,1.7-1.1,3
		c0.6,5.8,1.1,11.6,1.7,17.4c0.6,6.2,1.6,12.5,3.1,18.7c0.1,0.4,0.3,0.9,0.4,1.4c3.5-5,7.9-8.2,14.2-8.9c0-1.6,0-3.1,0-4.5
		c0-1.3,0.4-2.5,1.1-3.7c1-1.7,2.7-1.7,3.5,0c0.4,0.7,0.7,1.4,0.7,2.1c0.3,1.7,0.4,3.4,0.6,5.1c0,0.6,0,1.1,0,1.7
		c0.3,0.1,0.4,0.3,0.6,0.3c4.2,1.7,6.8,5,8.4,9.2c1.1,3.4,1.4,6.8,1.4,10.3c-0.1,5.2-1,10.5-2,15.6c0,0.3-0.1,0.6-0.1,0.9
		c0,0.1,0,0.3,0,0.4c1,0.4,2,0.9,3,1.3c0.7,0.3,1.4,0.7,2,1.3c0.6,0.4,1,1,0.7,1.8c-0.1,0.9-0.9,1.1-1.6,1.1c-1.3,0-2.7-0.1-4-0.1
		c-0.4,0-0.9-0.1-1.4-0.3c-1.4,5.1-2.8,10.2-4.2,15.3c0.1,0.1,0.3,0.1,0.4,0.3c6.9,2.6,11.2,7.8,13.3,14.7c0.4,1.4,0.7,3,1.1,4.5
		c0,0.3,0.1,0.6,0.3,0.9c2-3,4-5.8,6-8.5c-0.6-1.4-1.3-2.7-1.8-4.1c-0.1-0.3-0.3-0.7-0.4-1.1c-0.1-0.6-0.1-1,0.4-1.4
		c0.6-0.4,1.1-0.4,1.6,0c0.4,0.3,0.9,0.6,1.1,1c0.7,0.7,1.3,1.4,2.1,2.4c0.3-0.4,0.6-0.9,0.9-1.1c1.1-1.1,2.4-2.4,3.7-3.5
		c0.7-0.7,0.9-1.3,0.6-2.1c-0.4-0.9-0.7-1.8-1.1-2.8c-2.4-5.7-4.1-11.6-5-17.7c0-0.3-0.1-0.4-0.3-0.7c-1-0.1-2-0.3-3-0.6
		c-0.9-0.1-1.7-0.4-1.8-1.4c-0.1-1,0.6-1.4,1.4-1.8c0.9-0.4,1.8-0.9,2.8-1.3c0-1,0-2.1,0-3.3c0.1-1.8,0.1-3.8,0.6-5.7
		c0.4-2.4,1.7-4.4,3.5-6.1c2.7-2.3,6-2.4,8.9-0.7c0.3,0.1,0.4,0.3,0.9,0.4c2.1-3.4,3.8-6.8,5.1-10.6c-0.4-0.3-0.7-0.6-1.1-0.9
		c-1.1-1-2.1-2-2.6-3.5c-0.4-1.4,0.1-2.3,1.6-2.1c0.7,0,1.6,0.3,2.3,0.6c0.6,0.1,1,0.4,1.7,0.7c0.1-0.6,0.4-1,0.6-1.4
		c0.9-2,1.6-3.8,2.4-5.8c0.7-1.6,1.6-2.8,2.8-4c3-2.7,6.7-2.6,9.4,0.6c0.6,0.7,1.1,1.6,1.6,2.3c1.3-0.7,2.5-1.4,3.7-2.1
		c0.4-0.3,1-0.4,1.6-0.4c1.1,0,1.8,1,1.3,2c-0.1,0.3-0.4,0.7-0.6,1c-1.4,1.7-2.8,3.4-4.2,5.1c-0.4,0.4-0.6,1-0.6,1.6
		c-0.7,8.9-4,16.4-10.8,22.4c-2.4,2.1-5.1,3.5-8.2,4.4c1,4.4,2.1,8.8,3.1,13c1.3-0.4,2.4-1,3.5-1.4c0.6-0.1,1.3-0.4,1.8-0.3
		c1.4,0.1,2,1.3,1,2.4c-0.7,0.9-1.6,1.6-2.3,2.3c-0.9,0.7-1.6,1.4-2.5,2.1c-0.6,0.4-0.7,0.9-0.7,1.6c0.3,2,0.6,3.8,0.7,5.8
		c0,0.6,0,1,0,1.4c2,1.1,4,2.1,5.8,3.1c1-0.7,2.1-1.4,3.3-2.1c0.4-0.3,1-0.6,1.6-0.7c1.3-0.3,2.1,0.4,2.1,1.7c0,0.7-0.3,1.6-0.6,2.3
		c-0.4,0.9-0.9,1.7-1.4,2.4c-1,1.1-0.7,2.1-0.3,3.3c0.4,1.4,1,3,1.3,4.5c0.7,3.5,0,6.9-1.1,10.3c-0.1,0.4-0.3,0.7-0.4,1.1
		c0,0,0,0.1,0,0.3c0.3,0,0.6,0.1,0.9,0.1c1.3,0.3,2.5,0.4,3.8,0.7c0.4,0.1,0.9,0.3,1.1,0.6c1,0.7,1,1.8,0,2.4
		c-0.7,0.4-1.4,0.6-2.1,0.7c-2,0.3-4,0.4-5.9,0.9c-0.4,0-0.9,0.3-1,0.6c-3.5,4.5-7.9,7.9-12.8,11c-1.8,1.1-3.7,2.3-5.5,3.4
		c-0.3,0.1-0.6,0.3-0.9,0.6c0.3,0.7,0.6,1.3,0.7,2c0.3,0.9,0.6,1.7,0.7,2.6c0.1,0.4,0.1,0.9,0,1.3c-0.3,1.1-1.1,1.6-2.1,0.9
		c-0.9-0.6-1.7-1.3-2.4-2.1c-0.6-0.6-1.1-1.3-1.8-2c-0.3,0.1-0.7,0.3-1,0.4c-5.1,2.3-10.1,4.7-15.2,6.9c-1.3,0.6-2.5,1-3.8,1.4
		c-0.4,0.1-0.9,0.4-1,1c-1,2.4-2,5-3,7.4c0,0.1,0,0.3,0,0.4c0.9,0.1,1.7,0.3,2.6,0.6c0.9,0.3,1.8,0.7,2.5,1.1
		c1.3,0.9,1.1,2.1-0.1,2.8c-0.7,0.3-1.4,0.6-2.1,0.7c-1.7,0.3-3.5,0.6-5.2,0.9c-0.7,0.1-1,0.4-1.3,1c-1.8,3.3-4,6.4-6.5,9.2
		c-3.7,4.4-8.4,6.7-14,7.5c-3.3,0.4-6.1-0.4-8.8-2.3c-2-1.4-3.4-3.3-4.4-5.4c-2-4.1-3.8-8.4-5.8-12.6c-0.3-0.6-0.6-1.3-0.9-1.8
		c-1.3-0.1-2.4-0.3-3.8-0.4c-0.1,0.4-0.3,0.7-0.4,1c-0.4,1.1-0.9,2.1-1.3,3.3c-0.3,0.6-0.6,1.1-1,1.6c-1.1,1.1-2.6,0.6-3-0.9
		c-0.1-0.3-0.1-0.7-0.1-1c0-1.1,0.1-2.1,0.1-3.3c0-0.6,0.1-1.1,0.1-1.7c-6.4-1.6-12.6-3.4-18.3-6.8c-0.7,0.9-1.3,1.7-2.1,2.4
		c-0.6,0.6-1.3,1.1-2,1.6c-1.7,0.7-3-0.3-2.7-2.1c0.1-0.7,0.3-1.4,0.6-2.1c0.1-0.6,0.4-1,0.6-1.6c0.3-0.6,0.4-1,0.7-1.7
		c-0.3-0.3-0.7-0.6-1-1c-2.4-2.3-4.2-4.8-5.2-8.1c-0.9-2.7-1-5.5-0.1-8.4c1-3.7,3-6.8,5.7-9.4c2.1-2,4.5-3.1,7.5-3.4
		c0.1-1.1,0.3-2.1,0.6-3.1c0.3-1.1,0.7-2.3,1.3-3.4c0.3-0.4,0.7-0.9,1.1-1.3c1.1-0.9,2.1-0.6,2.7,0.7c0.3,0.7,0.4,1.4,0.6,2.1
		c0.6,2.3,1.1,4.4,1.7,6.7c0,0.3,0.3,0.6,0.6,0.7c3.1,1.8,5.8,4.2,8.5,6.7c0.1,0.1,0.1,0.1,0.4,0.3c0.1-3.3,0.1-6.5,0.3-9.8
		c-1-0.4-2-1-3-1.4c-0.6-0.4-1.3-0.9-1.7-1.3c-1.1-1.1-0.7-2.6,0.9-3c1-0.3,2-0.3,3.1,0C257.1,365.3,257.7,365.4,258.5,365.5z
		 M314.6,373.5c0-0.6,0-1.3,0-1.8c0-4.1-0.9-7.9-2.7-11.6c-1.8-4-4.8-6.7-8.8-8.4c-3.1-1.3-6.5-1.8-9.9-2c-3.3-0.1-6.5,0.1-9.6,0.7
		c-4,0.7-7.9,1.7-11.5,3.4c-3.3,1.6-5.7,4-7.4,7.1c-2.3,4.4-3.5,9.1-4,14c-0.4,5.7,0.4,11.2,1.4,16.6c0.9,4.7,2.1,9.1,4,13.3
		c1.3,2.8,2.5,5.8,3.8,8.6c1.8,4.1,3.8,8.1,6,12.2c0.4,1,1.1,1.8,1.7,2.7c1.7,2,4,3.1,6.5,2.8c4.2-0.6,7.9-2,10.9-5.2
		s5.4-6.7,7.4-10.5c4.1-7.8,7.2-16,9.6-24.5C313.6,385.2,314.6,379.4,314.6,373.5z M314.2,398.7c0.6-0.3,0.9-0.4,1.1-0.6
		c2.7-1.4,5.5-2.8,8.2-4.1c5.4-2.6,10.8-5,15.9-8.1c3.8-2.3,7.5-4.7,10.9-7.8c2.8-2.5,5.1-5.4,6.5-8.9c1.6-4,2.3-7.9,0.9-12.2
		c-0.9-2.7-2.1-5.1-4.4-6.9c-2.6-2.1-5.5-2.8-8.9-2c-2.7,0.7-5.1,2.1-7.4,3.7c-3.3,2.4-6.2,5.1-8.6,8.2c-3.1,4-6.1,7.9-9.1,11.9
		c-0.3,0.3-0.3,0.9-0.3,1.3c-0.1,6.9-1.3,13.7-3.1,20.3C315.2,395.3,314.8,396.9,314.2,398.7z M299.8,346.4c0.1-0.3,0.1-0.6,0.3-0.9
		c2-7.8,4-15.6,5.5-23.5c0.9-5,1.6-9.9,1.4-15c-0.1-2.8-0.6-5.5-1.8-8.1c-1.4-3-3.8-5-7.1-5.5c-3.5-0.6-6.7,0.3-9.5,2.3
		c-3.7,2.6-5.8,6.1-7.4,10.3c-1.3,3.5-1.6,7.2-1.7,10.9c-0.1,4.8,0.1,9.5,0.9,14.2c0.6,4,1.1,7.9,1.7,11.9c0.1,1,0.3,2.1,0.4,3.3
		C288.3,345.4,294,345.3,299.8,346.4z M276.1,321.6c0-1.7,0-3.1,0-4.4c0.1-5.4,0.7-10.5,3-15.4c0.3-0.4,0.1-0.9,0-1.4
		c-0.6-1.7-1.3-3.3-1.7-5c-2.5-9.4-3.5-18.8-4.7-28.3c-0.4-3.8-1-7.8-1.6-11.6c-0.4-2.6-1.1-5-2.3-7.2c-0.7-1.6-1.7-3-3.3-3.8
		c-2-1.3-3.3-1-4.5,1c-0.7,1.1-1.3,2.6-1.7,4c-1.3,4.1-1.6,8.4-1.8,12.6c-0.1,4.8,0,9.5,0.4,14.3c0.6,6.8,1.8,13.3,3.7,19.8
		c2.7,9.1,6.8,17.6,13.3,24.6C275.4,320.9,275.5,321.2,276.1,321.6z M263.9,409.3c-0.1-0.6-0.3-0.7-0.3-1c-0.9-2.6-1.8-5.1-2.5-7.8
		c-1.4-4.5-2.4-9.1-3.3-13.7c-0.1-0.6-0.3-1.3-0.7-1.7c-3-3.5-6.5-6.4-10.3-8.6c-0.9-0.6-1.8-0.9-2.7-1.3c-3.5-1.4-6.8-0.7-9.6,2
		c-1.6,1.6-2.7,3.3-3.7,5.4c-1.7,3.7-1.4,7.4,0.4,10.9c1.1,2.1,2.8,4,4.8,5.4c3.3,2.6,6.9,4.5,10.9,6c3.8,1.4,7.8,2.4,11.8,3.4
		C260.4,408.5,262.1,408.9,263.9,409.3z M346.8,344.1c-0.1-1.1-0.4-2.3-0.6-3.3c-1-5.8-2-11.6-3.4-17.4c-0.7-3-1.6-6-2.8-8.8
		c-0.6-1.3-1.3-2.6-2.4-3.5c-1.7-1.7-3.8-1.7-5.5,0c-1.1,1.1-1.8,2.4-2.3,4c-0.7,3-0.7,6.1-0.4,9.2c0.4,6.1,1.6,12,3.5,17.9
		c0.7,2.1,1.6,4.4,2.3,6.7C338.7,346.4,342.4,344.4,346.8,344.1z M344.7,315c2.8-1,5.2-2.5,7.4-4.5c4-3.8,6.4-8.5,7.9-13.6
		c0.9-2.7,1.3-5.4,1-8.2c-0.1-1.7-0.6-3.4-1.7-4.8c-1.7-2.1-2.8-1.8-4.2-0.1c-0.9,1.1-1.7,2.4-2.3,3.8c-1,2.4-1.8,4.8-2.7,7.4
		c-1.7,5.1-3.8,10.1-6.9,14.6c-0.3,0.4-0.4,0.9-0.7,1.1C343.3,312.1,344,313.5,344.7,315z M275,254.6c1.3-1,2.6-2.1,3.8-3.1
		c2.8-2.3,5.5-4.8,7.8-7.8c1.4-1.8,2.4-3.8,2.8-6.2c0.3-2,0.1-4-0.6-5.8c-0.7-1.6-1.8-2.4-3.7-2.4c-1.7,0-3.3,0.6-4.7,1.4
		c-1.8,1.3-3.4,3-4.5,5c-1.6,2.8-3.1,5.7-4.5,8.4c-0.3,0.4-0.1,0.7,0,1.1c0.6,1,1.1,2,1.4,3C273.7,250.4,274.3,252.5,275,254.6z
		 M298.9,289.8c-0.3-2.6-0.1-5.1-1.1-7.6c-1.3,2.5-1.1,5-0.9,7.5C297.5,289.6,298.1,289.6,298.9,289.8z M308.3,413.1
		c-0.3,0.7-0.6,1.3-1,2.1c1.8-0.4,3.5-0.6,5.5-1C311.2,413.6,310,413.1,308.3,413.1z M243.5,366.4c-0.1,0-0.3,0-0.4,0
		c-0.3,1.7-0.6,3.3-0.7,5c0.6,0.1,1.1,0.3,1.8,0.4C243.8,369.9,244.1,368.1,243.5,366.4z M358.8,350.5c1.3-1.6,2-2.7,2-3.8
		c-1.1,0.7-2.1,1.4-3.3,2.3C358,349.5,358.4,350,358.8,350.5z M277.2,332.2c-1.1,0.7-2.3,1.3-3.3,2.5c1.4-0.1,2.4-0.3,3.7-0.3
		C277.5,333.8,277.4,333.1,277.2,332.2z M258,411.9c-0.1,1.6-0.3,3-0.3,4.4c0.1,0,0.3,0,0.3,0c0.6-1.3,1-2.7,1.6-4.1
		C259,412.1,258.5,412,258,411.9z M250,274.4c1.3,0.4,2.4,0.4,3.5,0.3c0-0.6-0.1-1.1-0.1-1.7C252.3,273.3,251.2,273.5,250,274.4z
		 M234.6,402.7c-1,1.6-1.4,2.8-1.3,4c0.9-1.1,1.7-2.1,2.6-3.1C235.4,403.2,235,402.9,234.6,402.7z M312.2,330.8c0-0.1,0-0.1,0.1-0.3
		c-1.1-0.6-2.4-1.1-3.7-1.7c-0.1,0.6-0.1,1-0.3,1.6C309.7,330.5,311,330.7,312.2,330.8z M343.3,292.6c0,0.1-0.1,0.1-0.1,0.3
		c0.6,1,1.3,1.8,2.4,2.4c0.1-0.6,0.3-1,0.4-1.6C345.1,293.4,344.2,293,343.3,292.6z M263.8,311.9c-0.3-0.6-0.4-0.9-0.7-1.4
		c-1,0.7-1.8,1.4-2.8,2.1c0,0.1,0.1,0.1,0.1,0.3C261.4,312.4,262.5,312.1,263.8,311.9z M266.9,352.2c-0.9-0.7-1.6-1.4-2.6-2.3
		c0.4,1.3,0.9,2.3,1.3,3.3C266,352.9,266.5,352.6,266.9,352.2z M262.5,239.7c-0.6-1.3-1-2.4-1.4-3.4c-0.3,1.3-0.3,2.4,0.1,3.7
		C261.8,239.9,262.1,239.9,262.5,239.7z M258,367.7c-1.1-0.3-2.3-0.4-3.3-0.7c0,0.1,0,0.1-0.1,0.3c0.9,0.7,1.8,1.3,3.1,1.6
		C257.7,368.5,257.8,368.1,258,367.7z M349.4,333.8c1-0.9,1.8-1.7,2.7-2.4c0-0.1-0.1-0.1-0.1-0.3c-1,0.4-1.8,0.9-2.8,1.3
		C349.2,333,349.4,333.2,349.4,333.8z M364.1,285.4c0.1,0.6,0.3,0.9,0.4,1.4c0.9-1,1.4-1.8,2.1-2.7c0-0.1-0.1-0.1-0.1-0.3
		C365.6,284.2,364.9,284.8,364.1,285.4z M363,373c0-0.1,0-0.1,0-0.3c-0.7-0.1-1.6-0.1-2.3-0.3c-0.7-0.1-1.1,0.1-1.1,1
		C360.7,373.3,361.8,373.2,363,373z M335.5,392.7c0.7,0.9,1.3,1.4,2,2.1c0-0.7-0.1-1.3-0.3-1.8c-0.1-0.3-0.3-0.6-0.4-0.9
		C336.3,392.3,335.9,392.5,335.5,392.7z M324.4,325.6c0,0.1,0,0.1,0.1,0.3c0.6,0,1,0.1,1.7,0.1c-0.1-0.4-0.1-0.9-0.3-1.3
		C325.4,325,325,325.3,324.4,325.6z M325.5,356.6l-0.1,0.1c0.1,0.3,0.4,0.6,0.6,0.9c0.1,0,0.1-0.1,0.3-0.1
		C326,357.3,325.7,356.9,325.5,356.6z"/>
	<path fill="#979984" d="M281.9,400.7c1.3,0.1,2.7,0.4,4.2,0.7c0.4,0.1,0.9,0.3,1.1,0.6c0.1,0.1,0.3,0.7,0.1,1
		c0,0.1-0.4,0.4-0.7,0.4c-1.8-0.3-3.7-0.6-5.7-0.9c-0.6-0.1-1.1-0.1-1.1-1c0-0.6,0.4-0.7,1.4-0.7
		C281.5,400.7,281.5,400.7,281.9,400.7z"/>
	<path fill="#979984" d="M303.3,378.9c0-0.1,0-0.3,0-0.4c0-0.4,0.1-0.9,0.6-1c0.6-0.1,0.9,0.3,1,0.7c0.3,1,0.4,2.1,0.7,3.1
		c0.1,0.4,0.1,0.9,0.3,1.3c0.1,0.4,0.1,0.7-0.3,1c-0.4,0.3-0.9,0.1-1.1-0.3c-0.1-0.1-0.3-0.3-0.3-0.6
		C303.9,381.5,303.4,380.1,303.3,378.9C303.2,378.9,303.3,378.9,303.3,378.9z"/>
	<path fill="#979984" d="M284.5,380.8c-0.1,1.1-0.3,2.4-0.6,3.8c0,0.4-0.1,0.9-0.6,0.7c-0.3,0-0.6-0.4-0.9-0.7
		c-0.1-0.1-0.1-0.6,0-0.7c0.1-1.3,0.3-2.7,0.4-4c0-0.1,0-0.3,0-0.6c0.1-0.7,0.6-1.1,1-1c0.6,0.1,0.6,0.7,0.7,1.1
		C284.5,379.9,284.5,380.3,284.5,380.8z"/>
	<path fill="#979984" d="M288.1,420.8c-0.6-0.1-1.4-0.1-2.3-0.4c-0.4-0.1-1-0.3-1.3-0.6c-0.3-0.1-0.4-0.6-0.4-0.9
		c0-0.1,0.4-0.4,0.7-0.6c0.1-0.1,0.4,0,0.6,0c1.4,0.1,2.8,0.4,4.2,0.6c0.6,0.1,1,0.3,0.9,0.9c0,0.6-0.6,0.7-1,0.9
		C289.1,420.9,288.9,420.9,288.1,420.8z"/>
	<path fill="#979984" d="M292.4,364.1c0,0.6,0,1.3,0,1.8s-0.3,1-0.9,1s-0.9-0.3-0.9-0.9c0-1.3,0-2.5,0-3.8c0-0.6,0.3-1,0.9-0.9
		c0.6,0,0.9,0.4,0.9,1C292.5,363,292.4,363.6,292.4,364.1L292.4,364.1z"/>
	<path fill="#979984" d="M271.4,369.4c0,0.7-0.7,1.1-1.1,0.7c-0.9-0.7-1.7-1.4-2.5-2.3c-0.1-0.1-0.4-0.4-0.4-0.6
		c-0.1-0.3-0.1-0.7,0-0.9c0.1-0.1,0.7-0.1,0.9,0c0.6,0.3,1,0.9,1.6,1.3c0.4,0.4,0.9,0.9,1.3,1.3
		C271.1,368.9,271.3,369.2,271.4,369.4z"/>
	<path fill="#979984" d="M346.4,360.7c0.1,0.1,0.4,0.1,0.7,0.4c1,0.7,1.8,1.6,2.8,2.3c0.4,0.3,0.9,0.7,1.4,0.7
		c0.3,0,0.6,0.3,0.9,0.6c0.4,0.4,0.4,1.1,0.1,1.6c-0.4,0.4-0.9,0.7-1.4,0.4c-2-1.3-3.8-2.6-5.2-4.4
		C345.1,361.7,345.5,360.9,346.4,360.7z"/>
	<path fill="#979984" d="M338,365c-0.1,0.4-0.3,0.9-0.4,1.1c-0.6,1.6-1.1,3-1.8,4.5c-0.1,0.4-0.4,0.9-0.9,1.1
		c-0.1,0.1-0.6,0.1-0.9,0c-0.1-0.1-0.3-0.4-0.3-0.7c0-0.1,0-0.3,0.1-0.6c0.7-1.8,1.3-3.7,2-5.5c0.1-0.3,0.3-0.6,0.6-0.7
		c0.3-0.1,0.7-0.3,1-0.1C337.9,364.3,337.9,364.7,338,365z"/>
	<path fill="#979984" d="M330.5,385.5c-1.7-0.3-3.7-0.6-5.7-1c-0.1,0-0.3-0.1-0.4-0.1c-0.4-0.1-0.9-0.3-0.9-0.9
		c0-0.7,0.6-0.7,1.1-0.7c2.1,0.3,4.4,0.6,6.5,0.9c0.1,0,0.4,0,0.4,0.1c0.1,0.3,0.4,0.6,0.4,0.9c0,0.1-0.3,0.4-0.6,0.6
		C331.4,385.5,331.1,385.4,330.5,385.5z"/>
	<path fill="#979984" d="M287.3,332.2c0.6,0.1,1,0.1,1.3,0.3c1.1,0.3,2.1,0.7,3.3,1c0.4,0.1,0.7,0.4,0.7,1c-0.1,0.6-0.6,0.7-1.1,0.7
		c-1.4-0.4-2.8-0.9-4.4-1.3c-0.4-0.1-0.9-0.4-0.6-1C286.6,332.5,287.2,332.4,287.3,332.2z"/>
	<path fill="#979984" d="M290.7,300.7c-0.3-0.1-0.7-0.3-0.7-0.6c-0.1-0.3,0.1-0.7,0.3-0.9c0.3-0.3,0.7-0.4,1.1-0.6
		c1-0.3,2-0.6,3-0.7c0.4-0.1,0.9,0,1,0.6c0.1,0.4-0.1,0.9-0.4,0.9C293.5,299.8,292.1,300.2,290.7,300.7z"/>
	<path fill="#979984" d="M302.3,320.6c0,0.6,0,1.1,0,1.8c0,0.4-0.3,0.9-0.7,0.9c-0.3,0-0.7-0.4-0.9-0.7c-0.1-1.3-0.1-2.5-0.1-3.8
		c0-0.1,0.1-0.4,0.3-0.6c0.3-0.1,0.6-0.3,0.9-0.3c0.1,0,0.4,0.4,0.4,0.6C302.3,319.2,302.3,319.9,302.3,320.6L302.3,320.6z"/>
	<path fill="#979984" d="M292.4,309.9c0.1,0.1,0.4,0.3,0.6,0.6c0.4,1.1,0.9,2.3,1.3,3.5c0.1,0.4-0.3,0.9-0.7,0.7
		c-0.3,0-0.6-0.3-0.7-0.4c-0.7-1-1.1-2.3-1.3-3.4C291.3,310.3,291.7,309.9,292.4,309.9z"/>
	<path fill="#979984" d="M270.7,299.8c-1.1-0.1-2.3-0.4-3.4-0.6c-0.4-0.1-1-0.3-0.9-0.9c0.1-0.3,0.6-0.7,0.9-0.7
		c1.6,0.1,3.3,0.3,4.8,0.6c0.1,0,0.4,0.6,0.4,0.7c0,0.3-0.4,0.6-0.7,0.6C271.6,299.8,271.1,299.7,270.7,299.8
		C270.7,299.7,270.7,299.8,270.7,299.8z"/>
	<path fill="#979984" d="M265.9,254.8c-0.4,1.6-0.7,3-1.1,4.4c0,0.3-0.6,0.6-0.7,0.6c-0.3,0-0.4-0.4-0.7-0.7c-0.1-0.1,0-0.3,0-0.6
		c0.3-1.1,0.4-2.4,0.7-3.5c0-0.1,0.1-0.3,0.1-0.4c0.1-0.4,0.6-0.7,1-0.6C265.6,254.2,265.8,254.6,265.9,254.8z"/>
	<path fill="#979984" d="M265.3,270.9c-0.9-0.1-1.7-0.3-2.7-0.6c-0.4-0.1-0.9-0.4-0.7-0.9c0.1-0.4,0.6-0.7,1-0.7
		c1,0.1,2.1,0.4,3.1,0.7c0.3,0,0.6,0.6,0.4,0.7c0,0.3-0.4,0.4-0.7,0.6C265.6,270.9,265.5,270.8,265.3,270.9L265.3,270.9z"/>
	<path fill="#979984" d="M255.9,399.1c-0.1,0.1-0.3,0.4-0.4,0.6c-1.3,0.7-2.6,1.3-3.8,1.8c-0.3,0.1-0.7,0-0.9-0.3
		c-0.1-0.1,0-0.6,0.1-0.9c0.1-0.3,0.4-0.6,0.9-0.7c1-0.4,2-1,3.1-1.4C255.3,398.1,255.7,398.4,255.9,399.1z"/>
	<path fill="#979984" d="M242.8,386.5c0.1-0.3,0.4-0.7,0.7-0.9c0.6-0.3,0.9,0.3,1,0.7c0.3,1,0.4,2,0.6,3c0,0.3-0.1,0.6-0.4,0.7
		c-0.1,0.1-0.6,0-0.9-0.1c-0.3-0.1-0.4-0.4-0.6-0.7C243.2,388.5,243.1,387.6,242.8,386.5z"/>
	<path fill="#979984" d="M339.6,336.1c-0.1,0.6-0.3,0.9-0.4,1.3c-0.4,1.1-0.9,2.4-1.3,3.5c-0.1,0.3-0.3,0.6-0.4,0.9
		c-0.1,0.1-0.6,0.3-0.9,0.3c-0.3-0.1-0.4-0.4-0.6-0.9c0-0.1,0-0.3,0.1-0.4c0.4-1.4,1-2.8,1.4-4.2c0-0.1,0.1-0.4,0.3-0.6
		c0.3-0.1,0.7-0.4,1-0.4C339.3,335.4,339.4,335.8,339.6,336.1z"/>
	<path fill="#979984" d="M338.2,322c-0.4-0.1-0.7-0.3-1-0.3c-1-0.6-2.1-1.1-3.1-1.8c-0.4-0.3-0.9-0.6-0.6-1.3
		c0.1-0.4,0.9-0.6,1.6-0.1c1.3,0.6,2.4,1.3,3.5,2c0.3,0.1,0.6,0.7,0.6,0.9C338.9,321.6,338.4,321.8,338.2,322z"/>
	<path fill="#979984" d="M353.2,300.2c0.1-0.3,0.1-0.6,0.3-0.9c1-1.1,2-2.4,3.1-3.5c0.3-0.3,0.6-0.6,1-0.7c0.3-0.1,0.7,0,0.9,0.3
		c0.1,0.1,0.1,0.7,0,0.9c-0.4,0.6-1,1.1-1.6,1.7c-0.6,0.6-1.1,1.1-1.7,1.7C354.6,300.5,354,300.7,353.2,300.2z"/>
	<path fill="#979984" d="M278.9,242c0.3-1.7,0.4-3.1,0.7-4.7c0-0.3,0.1-0.6,0.3-0.7s0.6-0.4,0.7-0.4c0.3,0.1,0.6,0.4,0.7,0.6
		c0.1,0.1,0.1,0.6,0,0.7c-0.3,1.4-0.4,2.7-0.7,4.1c0,0.1,0,0.3-0.1,0.4c-0.1,0.4-0.4,0.8-1,0.7C279.4,242.7,279.1,242.3,278.9,242z"
		/>
</g>
</svg>
